<?xml version="1.0" encoding="UTF-8" standalone="no"?>
<svg
   xmlns:dc="http://purl.org/dc/elements/1.1/"
   xmlns:cc="http://creativecommons.org/ns#"
   xmlns:rdf="http://www.w3.org/1999/02/22-rdf-syntax-ns#"
   xmlns:svg="http://www.w3.org/2000/svg"
   xmlns="http://www.w3.org/2000/svg"
   xmlns:sodipodi="http://sodipodi.sourceforge.net/DTD/sodipodi-0.dtd"
   xmlns:inkscape="http://www.inkscape.org/namespaces/inkscape"
   id="svg2"
   xml:space="preserve"
   viewBox="0 0 35 35"
   version="1.1"
   sodipodi:docname="person_marker.svg"
   inkscape:version="0.92.1 r"><defs
     id="defs14" /><sodipodi:namedview
     pagecolor="#ffffff"
     bordercolor="#666666"
     borderopacity="1"
     objecttolerance="10"
     gridtolerance="10"
     guidetolerance="10"
     inkscape:pageopacity="0"
     inkscape:pageshadow="2"
     inkscape:window-width="1366"
     inkscape:window-height="709"
     id="namedview12"
     showgrid="false"
     inkscape:zoom="9.53584"
     inkscape:cx="27.971794"
     inkscape:cy="14.504345"
     inkscape:window-x="0"
     inkscape:window-y="0"
     inkscape:window-maximized="1"
     inkscape:current-layer="svg2" /><metadata
     id="metadata8"><rdf:RDF><cc:Work
         rdf:about=""><dc:format>image/svg+xml</dc:format><dc:type
           rdf:resource="http://purl.org/dc/dcmitype/StillImage" /><dc:title>grill-15</dc:title><cc:license
           resource="https://creativecommons.org/publicdomain/zero/1.0/" /><cc:attributionURL
           resource="https://openclipart.org/detail/177854/person-icon" /></cc:Work></rdf:RDF></metadata><path
     style="opacity:1;fill:#ff0000;fill-opacity:1;stroke:#ff0000;stroke-width:2;stroke-linecap:butt;stroke-linejoin:miter;stroke-miterlimit:4;stroke-dasharray:none;stroke-dashoffset:0;stroke-opacity:1"
     id="path4491"
     sodipodi:type="arc"
     sodipodi:cx="17.944914"
     sodipodi:cy="26.285322"
     sodipodi:rx="13.050847"
     sodipodi:ry="6.4901013"
     sodipodi:start="4.7652154"
     sodipodi:end="4.6309357"
     sodipodi:open="true"
     d="M 18.634023,19.804274 A 13.050847,6.4901013 0 0 1 30.993341,26.410291 13.050847,6.4901013 0 0 1 18.13171,32.774759 13.050847,6.4901013 0 0 1 4.9090255,26.595971 13.050847,6.4901013 0 0 1 16.883055,19.816739" /><g
     id="g10"
     transform="matrix(1.25,0,0,-1.25,0,31)"><g
       id="g6008"
       transform="matrix(0.32503,0,0,0.32503,-100.86,-132.32)"><g
         id="g5704"
         transform="translate(362.96,472.25)"><path
           id="path5706"
           d="m 0,0 c 0,-4.93 -3.997,-8.927 -8.927,-8.927 -4.929,0 -8.927,3.997 -8.927,8.927 0,4.93 3.998,8.927 8.927,8.927 C -3.997,8.927 0,4.93 0,0"
           inkscape:connector-curvature="0"
           style="fill:#6f6c6d;fill-rule:evenodd" /></g><g
         id="g5708"
         transform="translate(362.69,459.83)"><path
           id="path5710"
           d="m 0,0 c -1.353,0.946 -3.808,1.721 -5.458,1.721 h -6 c -1.65,0 -4.105,-0.775 -5.458,-1.721 L -17,-0.059 c -1.353,-0.946 -2.458,-3.07 -2.458,-4.72 v -11.625 c 0,-1.651 0.562,-4.097 1.25,-5.438 0.687,-1.341 1.475,-2.437 1.75,-2.437 0.275,0 0.722,-1.332 0.993,-2.959 l 2.014,-12.082 c 0.271,-1.627 1.506,-2.959 2.743,-2.959 h 4.5 c 1.237,0 2.472,1.332 2.743,2.959 l 2.014,12.082 c 0.271,1.627 0.718,2.959 0.993,2.959 0.275,0 1.062,1.096 1.75,2.437 0.687,1.341 1.25,3.787 1.25,5.438 v 11.625 c 0,1.65 -1.105,3.774 -2.458,4.72 z"
           inkscape:connector-curvature="0"
           style="fill:#6f6c6d;fill-rule:evenodd" /></g></g></g><metadata
     id="metadata9"><rdf:RDF><cc:Work><dc:format>image/svg+xml</dc:format><dc:type
           rdf:resource="http://purl.org/dc/dcmitype/StillImage" /><cc:license
           rdf:resource="http://creativecommons.org/licenses/publicdomain/" /><dc:publisher><cc:Agent
             rdf:about="http://openclipart.org/"><dc:title>Openclipart</dc:title></cc:Agent></dc:publisher><dc:title>Person Icon</dc:title><dc:date>2013-05-07T09:49:53</dc:date><dc:description>Icon for representing a person</dc:description><dc:source>https://openclipart.org/detail/177854/person-icon-by-thekua-177854</dc:source><dc:creator><cc:Agent><dc:title>thekua</dc:title></cc:Agent></dc:creator><dc:subject><rdf:Bag><rdf:li>person icon people</rdf:li></rdf:Bag></dc:subject></cc:Work><cc:License
         rdf:about="http://creativecommons.org/licenses/publicdomain/"><cc:permits
           rdf:resource="http://creativecommons.org/ns#Reproduction" /><cc:permits
           rdf:resource="http://creativecommons.org/ns#Distribution" /><cc:permits
           rdf:resource="http://creativecommons.org/ns#DerivativeWorks" /></cc:License></rdf:RDF></metadata></svg>