<?xml version="1.0" encoding="UTF-8" standalone="no"?>
<svg
   xmlns:dc="http://purl.org/dc/elements/1.1/"
   xmlns:cc="http://creativecommons.org/ns#"
   xmlns:rdf="http://www.w3.org/1999/02/22-rdf-syntax-ns#"
   xmlns:svg="http://www.w3.org/2000/svg"
   xmlns="http://www.w3.org/2000/svg"
   xmlns:sodipodi="http://sodipodi.sourceforge.net/DTD/sodipodi-0.dtd"
   xmlns:inkscape="http://www.inkscape.org/namespaces/inkscape"
   version="1.0"
   width="400"
   height="291"
   viewBox="0 -0.693 400 291"
   id="svg2"
   xml:space="preserve"
   sodipodi:docname="deutsche-post-horn.svg"
   inkscape:version="0.92.2 5c3e80d, 2017-08-06"><metadata
     id="metadata9"><rdf:RDF><cc:Work
         rdf:about=""><dc:format>image/svg+xml</dc:format><dc:type
           rdf:resource="http://purl.org/dc/dcmitype/StillImage" /><dc:title></dc:title></cc:Work></rdf:RDF></metadata><sodipodi:namedview
     pagecolor="#ffffff"
     bordercolor="#666666"
     borderopacity="1"
     objecttolerance="10"
     gridtolerance="10"
     guidetolerance="10"
     inkscape:pageopacity="0"
     inkscape:pageshadow="2"
     inkscape:window-width="1015"
     inkscape:window-height="534"
     id="namedview7"
     showgrid="false"
     inkscape:zoom="0.88066935"
     inkscape:cx="239.87026"
     inkscape:cy="142.76499"
     inkscape:window-x="0"
     inkscape:window-y="0"
     inkscape:window-maximized="0"
     inkscape:current-layer="svg2" /><defs
     id="defs4" /><path
     inkscape:connector-curvature="0"
     id="path10"
     d="m 145.6365,227.649 h 42.776 l -43.198,43.699 h -42.759 z m -57.687999,0 H 130.7245 l -43.197999,43.699 h -42.773 z m 153.154999,0 h -42.759 l 43.181,43.699 h 42.776 z m 57.703,0 h -42.773 l 43.181,43.699 h 42.776 z m -26.229,-121.294 c 7.409,-20.208 12.568,-50.966 13.644,-72.488 l 75.882,18.867 c -6.076,89.067 -72.888,167.08 -171.981,167.048 C 78.015501,219.732 34.687501,122.278 40.518501,48.42 l 32.924,-10.469 c -5.355,42.025 7.652,72.325 16.623,86.234 C 79.383501,64.723 124.2785,16.591 180.4525,16.559 c 50.52,-0.032 92.318,36.86 92.125,89.796 z m -152.701,1.874 v 0 c 0,33.542 27.193,60.735 60.735,60.735 33.53,0 60.718,-27.193 60.718,-60.735 0,-33.529 -27.19,-60.719 -60.718,-60.719 -33.542,0 -60.735,27.19 -60.735,60.719 z" /></svg>