<?xml version="1.0" encoding="UTF-8" standalone="no"?>
<!-- Created with Inkscape (http://www.inkscape.org/) -->

<svg
   xmlns:dc="http://purl.org/dc/elements/1.1/"
   xmlns:cc="http://creativecommons.org/ns#"
   xmlns:rdf="http://www.w3.org/1999/02/22-rdf-syntax-ns#"
   xmlns:svg="http://www.w3.org/2000/svg"
   xmlns="http://www.w3.org/2000/svg"
   xmlns:xlink="http://www.w3.org/1999/xlink"
   xmlns:sodipodi="http://sodipodi.sourceforge.net/DTD/sodipodi-0.dtd"
   xmlns:inkscape="http://www.inkscape.org/namespaces/inkscape"
   width="6.6410418mm"
   height="10.643426mm"
   viewBox="0 0 6.6410418 10.643426"
   version="1.1"
   id="svg962"
   inkscape:version="0.92.4 5da689c313, 2019-01-14"
   sodipodi:docname="flohmarkt_kinder.svg">
  <defs
     id="defs956">
    <linearGradient
       xlink:href="#a"
       id="c-3-5-3-7-2"
       gradientUnits="userSpaceOnUse"
       gradientTransform="matrix(0.26458333,0,0,0.26458333,-91.372797,13.357682)"
       x1="445.30099"
       y1="541.28601"
       x2="445.30099"
       y2="503.72" />
    <linearGradient
       id="a">
      <stop
         offset="0"
         stop-color="#126fc6"
         id="stop7" />
      <stop
         offset="1"
         stop-color="#4c9cd1"
         id="stop9" />
    </linearGradient>
    <linearGradient
       xlink:href="#b"
       id="d-5-2-5-3-5"
       gradientUnits="userSpaceOnUse"
       gradientTransform="matrix(0.26458333,0,0,0.26458333,-67.142253,13.357412)"
       x1="351.74799"
       y1="522.77399"
       x2="351.74799"
       y2="503.72101" />
    <linearGradient
       id="b">
      <stop
         offset="0"
         stop-color="#2e6c97"
         id="stop2" />
      <stop
         offset="1"
         stop-color="#3883b7"
         id="stop4" />
    </linearGradient>
  </defs>
  <sodipodi:namedview
     id="base"
     pagecolor="#ffffff"
     bordercolor="#666666"
     borderopacity="1.0"
     inkscape:pageopacity="0.0"
     inkscape:pageshadow="2"
     inkscape:zoom="1.979899"
     inkscape:cx="48.469321"
     inkscape:cy="0.12701124"
     inkscape:document-units="mm"
     inkscape:current-layer="layer1"
     showgrid="false"
     fit-margin-top="0"
     fit-margin-left="0"
     fit-margin-right="0"
     fit-margin-bottom="0"
     inkscape:window-width="1366"
     inkscape:window-height="709"
     inkscape:window-x="0"
     inkscape:window-y="0"
     inkscape:window-maximized="1" />
  <metadata
     id="metadata959">
    <rdf:RDF>
      <cc:Work
         rdf:about="">
        <dc:format>image/svg+xml</dc:format>
        <dc:type
           rdf:resource="http://purl.org/dc/dcmitype/StillImage" />
        <dc:title></dc:title>
      </cc:Work>
    </rdf:RDF>
  </metadata>
  <g
     inkscape:label="Layer 1"
     inkscape:groupmode="layer"
     id="layer1"
     transform="translate(-23.137812,-146.53543)">
    <path
       inkscape:connector-curvature="0"
       style="fill:url(#c-3-5-3-7-2);stroke:url(#d-5-2-5-3-5);stroke-width:0.29104167;stroke-linecap:round"
       d="m 26.469975,146.68095 c -1.739106,0 -3.186642,1.50575 -3.186642,3.13955 0,0.73501 0.413809,1.66899 0.712788,2.31404 l 2.462212,4.72864 2.450571,-4.72864 c 0.298979,-0.64505 0.724429,-1.5322 0.724429,-2.31404 0,-1.6338 -1.424252,-3.13955 -3.163358,-3.13955 z"
       id="path44-2-3-2-2-2"
       sodipodi:nodetypes="sscccss"
       inkscape:export-xdpi="95.458084"
       inkscape:export-ydpi="95.458084" />
    <path
       inkscape:connector-curvature="0"
       style="fill:none;stroke:#ffffff;stroke-width:0.29104167;stroke-linecap:round;stroke-opacity:0.122"
       d="m 26.466535,146.97385 c -1.572683,0 -2.894012,1.38086 -2.894012,2.84427 0,0.62415 0.381794,1.54305 0.678127,2.18281 l 0.0082,0.008 2.199481,4.22513 2.182813,-4.22513 0.0082,-0.008 c 0.300302,-0.6477 0.694531,-1.50971 0.694531,-2.18281 0,-1.46526 -1.30466,-2.84427 -2.877344,-2.84427 z"
       id="path68-9-6-9-6-8"
       sodipodi:nodetypes="sscccccss"
       inkscape:export-xdpi="95.458084"
       inkscape:export-ydpi="95.458084" />
    <g
       id="g1218"
       transform="matrix(0.26458333,0,0,0.26458333,-159.52918,-17.813858)"
       inkscape:export-xdpi="95"
       inkscape:export-ydpi="95">
      <circle
         inkscape:export-ydpi="95"
         inkscape:export-xdpi="95"
         style="fill:#ffffff;fill-opacity:1;stroke-width:0.04488011"
         cx="702.80743"
         cy="630.97137"
         r="0.55373079"
         id="circle2" />
      <path
         inkscape:export-ydpi="95"
         inkscape:export-xdpi="95"
         style="fill:#ffffff;fill-opacity:1;stroke-width:0.04488011"
         d="m 707.08193,638.23124 c -0.26654,-0.14308 -0.22552,-0.401 -0.22552,-0.56271 v -2.25931 c 0.7797,-0.15923 2.49565,-0.17386 2.49565,-1.71505 0,-0.76157 -0.62132,-1.04045 -1.37903,-0.96339 -0.60422,0.0614 -0.8884,0.46464 -1.91199,0.0797 -0.12974,-0.0488 -0.49175,-0.36811 -0.28449,-0.62074 0.52985,-0.64596 0.82876,-1.48809 0.82876,-2.39493 0,-0.14824 -10e-4,-0.44526 0.13167,-0.50073 0.68169,-0.28454 1.1427,-0.99064 1.1427,-1.78888 0,-1.08085 -0.86067,-1.95713 -1.92222,-1.95713 -0.5755,0 -1.09184,0.2577 -1.44415,0.6658 -0.0308,0.0358 -0.086,0.11 -0.22099,0.0517 -0.47815,-0.22494 -0.8783,-0.29163 -1.43966,-0.29163 -0.60292,0 -1.04109,0.0813 -1.54594,0.33857 -0.15933,0.0487 -0.26758,-0.11538 -0.34634,-0.19505 -0.34742,-0.35181 -0.82593,-0.56939 -1.35462,-0.56939 -1.06159,0 -1.92231,0.87624 -1.92231,1.95713 0,0.82979 0.50728,1.5389 1.2233,1.82357 0.0692,0.0275 0.17616,0.11054 0.19326,0.46604 0.0432,0.89908 0.3059,1.72739 0.8174,2.38035 0.1897,0.24208 0.007,0.55458 -0.27857,0.64281 -1.04136,0.32193 -1.30435,-0.0251 -1.90638,-0.0872 -0.75762,-0.0782 -1.37903,0.20183 -1.37903,0.9634 0,1.49971 1.71545,1.55312 2.49552,1.71011 v 2.26425 c 0,0.16614 0.0232,0.39885 -0.32319,0.61288 -0.96748,0.39871 -2.35611,0.4295 -2.35611,1.78345 0,0.82386 0.6833,1.6506 1.49172,1.49172 1.01277,-0.19895 1.54437,-0.53515 3.08107,-1.23061 0.33094,-0.1508 0.56445,-0.0752 0.70978,-0.0548 0.43592,0.0612 0.90783,0.0849 1.40039,0.0849 0.55037,0 1.07483,-0.0295 1.55204,-0.10798 0.12046,-0.0198 0.40213,-0.0312 0.66073,0.074 1.49967,0.69807 1.98092,1.03368 2.97869,1.23452 0.80767,0.16256 1.49173,-0.66786 1.49173,-1.49172 9e-5,-1.35386 -1.48814,-1.42975 -2.45387,-1.83358 z m -2.41298,-6.70608 c 0,0.80659 -0.83338,1.46058 -1.86158,1.46058 -1.02802,0 -1.86154,-0.65399 -1.86154,-1.46058 0,-0.80667 0.83347,-1.46058 1.86154,-1.46058 1.02816,0 1.86158,0.65391 1.86158,1.46058 z m -4.54034,-2.40889 c 0,-0.36703 0.29742,-0.66454 0.6645,-0.66454 0.36698,0 0.66458,0.29751 0.66458,0.66454 0,0.36703 -0.2976,0.66454 -0.66458,0.66454 -0.36708,-5e-5 -0.6645,-0.29756 -0.6645,-0.66454 z m 4.97294,8.22096 c 0,1.24196 -1.00688,1.79969 -2.24876,1.79969 -1.24201,0 -2.24881,-0.55773 -2.24881,-1.79969 v -1.05747 c 0,-1.24197 1.00684,-2.24876 2.24881,-2.24876 1.24192,0 2.24876,1.00684 2.24876,2.24876 z m -0.51509,-7.55647 c -0.36703,0 -0.66454,-0.29751 -0.66454,-0.66454 0,-0.36703 0.29751,-0.66454 0.66454,-0.66454 0.36703,0 0.66454,0.29751 0.66454,0.66454 0,0.36703 -0.29751,0.66454 -0.66454,0.66454 z"
         id="path4-0"
         inkscape:connector-curvature="0" />
    </g>
  </g>
</svg>
