<?xml version="1.0" encoding="UTF-8" standalone="no"?>
<!-- Created with Inkscape (http://www.inkscape.org/) -->

<svg
   xmlns:dc="http://purl.org/dc/elements/1.1/"
   xmlns:cc="http://creativecommons.org/ns#"
   xmlns:rdf="http://www.w3.org/1999/02/22-rdf-syntax-ns#"
   xmlns:svg="http://www.w3.org/2000/svg"
   xmlns="http://www.w3.org/2000/svg"
   xmlns:xlink="http://www.w3.org/1999/xlink"
   xmlns:sodipodi="http://sodipodi.sourceforge.net/DTD/sodipodi-0.dtd"
   xmlns:inkscape="http://www.inkscape.org/namespaces/inkscape"
   width="6.6410418mm"
   height="10.643426mm"
   viewBox="0 0 6.6410418 10.643426"
   version="1.1"
   id="svg962"
   inkscape:version="0.92.4 5da689c313, 2019-01-14"
   sodipodi:docname="flohmarkt_cafe.svg">
  <defs
     id="defs956">
    <linearGradient
       xlink:href="#a"
       id="c-3-5-3-7-2"
       gradientUnits="userSpaceOnUse"
       gradientTransform="matrix(0.26458333,0,0,0.26458333,-91.372797,13.357682)"
       x1="445.30099"
       y1="541.28601"
       x2="445.30099"
       y2="503.72" />
    <linearGradient
       id="a">
      <stop
         offset="0"
         stop-color="#126fc6"
         id="stop7" />
      <stop
         offset="1"
         stop-color="#4c9cd1"
         id="stop9" />
    </linearGradient>
    <linearGradient
       xlink:href="#b"
       id="d-5-2-5-3-5"
       gradientUnits="userSpaceOnUse"
       gradientTransform="matrix(0.26458333,0,0,0.26458333,-67.142253,13.357412)"
       x1="351.74799"
       y1="522.77399"
       x2="351.74799"
       y2="503.72101" />
    <linearGradient
       id="b">
      <stop
         offset="0"
         stop-color="#2e6c97"
         id="stop2" />
      <stop
         offset="1"
         stop-color="#3883b7"
         id="stop4" />
    </linearGradient>
    <linearGradient
       xlink:href="#a"
       id="c-3-5"
       gradientUnits="userSpaceOnUse"
       gradientTransform="matrix(0.26458333,0,0,0.26458333,-96.831472,25.361127)"
       x1="445.30099"
       y1="541.28601"
       x2="445.30099"
       y2="503.72" />
    <linearGradient
       xlink:href="#b"
       id="d-5-2"
       gradientUnits="userSpaceOnUse"
       gradientTransform="matrix(0.26458333,0,0,0.26458333,-72.600931,25.360863)"
       x1="351.74799"
       y1="522.77399"
       x2="351.74799"
       y2="503.72101" />
  </defs>
  <sodipodi:namedview
     id="base"
     pagecolor="#ffffff"
     bordercolor="#666666"
     borderopacity="1.0"
     inkscape:pageopacity="0.0"
     inkscape:pageshadow="2"
     inkscape:zoom="1.979899"
     inkscape:cx="69.10054"
     inkscape:cy="45.494374"
     inkscape:document-units="mm"
     inkscape:current-layer="layer1"
     showgrid="false"
     fit-margin-top="0"
     fit-margin-left="0"
     fit-margin-right="0"
     fit-margin-bottom="0"
     inkscape:window-width="1366"
     inkscape:window-height="709"
     inkscape:window-x="0"
     inkscape:window-y="0"
     inkscape:window-maximized="1" />
  <metadata
     id="metadata959">
    <rdf:RDF>
      <cc:Work
         rdf:about="">
        <dc:format>image/svg+xml</dc:format>
        <dc:type
           rdf:resource="http://purl.org/dc/dcmitype/StillImage" />
        <dc:title></dc:title>
      </cc:Work>
    </rdf:RDF>
  </metadata>
  <g
     inkscape:label="Layer 1"
     inkscape:groupmode="layer"
     id="layer1"
     transform="translate(-17.679135,-158.53888)">
    <rect
       style="fill:#ffffff;stroke-width:0.26458332"
       y="159.73294"
       x="19.353678"
       height="3.8364584"
       width="3.3403647"
       id="rect42-6-7"
       inkscape:export-xdpi="96"
       inkscape:export-ydpi="96" />
    <path
       inkscape:connector-curvature="0"
       style="fill:url(#c-3-5);stroke:url(#d-5-2);stroke-width:0.29104167;stroke-linecap:round"
       d="m 21.011297,158.6844 c -1.739106,0 -3.186641,1.50574 -3.186641,3.13955 0,0.73501 0.413808,1.66899 0.712787,2.31404 l 2.462213,4.72864 2.450571,-4.72864 c 0.298979,-0.64505 0.724429,-1.5322 0.724429,-2.31404 0,-1.63381 -1.424252,-3.13955 -3.163359,-3.13955 z"
       id="path44-2-3"
       sodipodi:nodetypes="sscccss"
       inkscape:export-xdpi="96"
       inkscape:export-ydpi="96" />
    <path
       inkscape:connector-curvature="0"
       style="fill:none;stroke:#ffffff;stroke-width:0.29104167;stroke-linecap:round;stroke-opacity:0.122"
       d="m 21.007858,158.97729 c -1.572683,0 -2.894013,1.38086 -2.894013,2.84428 0,0.62415 0.381794,1.54305 0.678128,2.18281 l 0.0082,0.008 2.199481,4.22513 2.182812,-4.22513 0.0082,-0.008 c 0.300302,-0.6477 0.694532,-1.50971 0.694532,-2.18281 0,-1.46527 -1.304661,-2.84428 -2.877344,-2.84428 z"
       id="path68-9-6"
       sodipodi:nodetypes="sscccccss"
       inkscape:export-xdpi="96"
       inkscape:export-ydpi="96" />
    <rect
       width="3.7041667"
       height="3.7041667"
       x="19.783627"
       y="160.65898"
       id="canvas"
       style="visibility:hidden;fill:none;stroke:none;stroke-width:0.26458332"
       inkscape:export-xdpi="96"
       inkscape:export-ydpi="96" />
    <path
       inkscape:connector-curvature="0"
       d="m 19.787332,160.2305 v 1.4726 c 0,0.49086 0.490863,0.73629 1.104445,0.73629 0.613582,0 1.104443,-0.24543 1.104443,-0.73629 h 0.490865 c 0.245433,0 0.490863,-0.24543 0.490863,-0.49087 v -0.24543 c 0,-0.24543 -0.24543,-0.49086 -0.490863,-0.49086 H 21.99622 v -0.24544 z m 2.208888,0.55223 h 0.429506 c 0.163896,0 0.245432,0.13814 0.245432,0.30679 0,0.16865 -0.09528,0.30679 -0.245432,0.30679 H 21.99622 Z m -2.45432,1.90209 c 0,0.24544 0.245432,0.49087 0.490862,0.49087 h 1.718025 c 0.245433,0 0.490865,-0.24543 0.490865,-0.49087 z"
       id="cafe"
       style="fill:#ffffff;fill-opacity:1;stroke:none;stroke-width:0.24543211"
       inkscape:export-xdpi="96"
       inkscape:export-ydpi="96" />
  </g>
</svg>
